<svg width="512" height="512" viewBox="0 0 512 512" fill="none" xmlns="http://www.w3.org/2000/svg">
<rect width="512" height="512" rx="112" fill="#ffffff"/>
<g transform="translate(103 133) scale(2.5)" fill="#013334">
<path d="M98.2316 42.7952L98.8115 42.9111L101.711 43.839L104.842 44.5348L105.306 44.9987L107.278 50.1017L108.554 53.233L110.177 57.2922L110.873 59.1478L112.613 63.207L113.888 66.5703L115.628 70.7455L116.904 74.2248L118.064 77.704L118.643 80.1395L119.107 83.039L119.455 86.7502V90.9253L119.107 92.8969L118.527 94.4046L117.484 95.9123L116.324 96.8401L114.932 97.536L113.425 97.8839L111.917 97.9999H108.322L106.698 97.7679L105.306 97.304L104.262 96.4922L103.451 95.6804L102.871 94.5206L102.523 93.0129V91.0413L102.987 89.9975L103.567 89.5336L103.798 89.4176H104.958L105.538 89.8816L105.886 91.9691L106.582 93.3608L107.278 93.9407L108.554 94.5206H110.293L111.337 94.1727L112.265 93.4768L112.845 92.549L113.193 91.2733L113.309 90.5774V87.0981L112.961 86.5182L112.149 86.4023L111.685 86.8662L111.569 89.8816L111.337 91.6212L110.525 92.549L109.945 92.781H109.017L108.322 92.433L107.858 91.8532L107.51 90.9253L107.394 89.9975V84.0827L107.858 82.2271L107.046 81.1833L105.654 79.3277L104.262 77.5881L103.103 75.9644L101.479 73.7608L100.319 72.1372L98.9275 70.1656L98.6955 69.0058L98.5796 64.9466L98.4636 56.9443L98.3476 52.6532L98.2316 42.7952Z"/>
<path d="M67.7299 64.7147H67.9618L68.5417 66.5703L69.0056 69.0058V72.7171L68.6577 74.9206L67.9618 77.3561L66.8021 80.0236L64.3666 84.8946L62.9749 87.4461L62.163 88.9538V89.1857L65.1784 90.1135L68.8897 91.5053L71.0932 92.665L72.253 93.5928L73.1808 94.6366L73.6447 95.5644L73.7607 95.9124V97.652L73.6447 97.884L66.6861 97.9999L65.9903 97.884L66.1062 97.3041V96.4922L65.6423 95.2165L64.8305 94.1727L63.0908 93.2449L60.3074 92.4331L59.3796 92.3171L58.7997 92.549L58.6837 93.3609L58.9157 93.8248L59.8435 94.1727L61.2352 94.5206L62.6269 94.9845L63.7867 95.6804L64.2506 96.2603V97.1881L63.7867 97.768L63.5547 97.884L59.1476 97.9999H56.8281L56.3642 97.768V96.7242L55.7843 94.5206L55.2045 93.3609L54.2766 92.2011L52.653 91.0413L51.0293 90.1135L48.9417 89.1857L48.7098 88.8378L50.3334 86.7502L51.8411 84.6626L53.3488 82.2271L54.3926 80.3715L55.3204 78.3999L56.1323 75.6165L56.4802 73.8769L56.5962 71.6733L56.4802 69.3538L56.2482 67.9621V67.2662L59.9595 66.6863L64.2506 65.7585L67.7299 64.7147Z"/>
<path d="M102.175 0.463867L104.03 1.04395L106.698 2.20312L108.67 3.36328L110.525 4.75488L112.033 6.03125L112.729 6.61035L113.772 7.88672L114.469 8.69824L114.236 9.16211L113.077 9.62598H111.569L109.134 8.93066L107.626 8.46582L106.466 8.23438L105.307 8.11816H104.263L102.755 8.35059L101.363 8.81445L100.088 9.50977L98.9277 10.4375L98.1162 11.25L97.1885 12.7578L96.6084 14.3809L96.376 15.3086V17.8604L96.9561 20.0635L97.8838 21.6875L98.9277 22.8477L99.9717 23.7754L101.827 24.8193L102.755 25.2832L102.407 26.3262L101.943 27.6025L101.479 29.3418L101.247 30.7334V32.9375L101.595 34.9092L102.175 36.6484L103.219 38.5039L104.146 39.6641L105.19 40.708L106.351 41.5195L106.582 41.8672L104.958 41.752L102.06 41.1719L98.8115 40.0117L95.5645 38.3877V48.0146L95.7959 61.1191L96.0283 70.2812L96.1445 77.4727V84.7783L95.9121 88.0264L95.2168 92.7812L94.6367 95.2168L94.1729 96.1445L93.3613 97.0723L92.085 97.7676L90.9258 98L91.9688 95.7969L92.3174 94.4043V93.3613L92.085 93.1289L91.2734 93.2451L90.9258 94.2891L90.4619 95.9121L89.6494 97.0723L89.0693 97.5361L88.2578 97.8838L86.6338 98L86.5186 97.7676L87.2139 96.6084L87.9102 94.5205L88.0264 93.3613L87.7939 93.0127L87.2139 92.8975L86.75 93.3613L86.1699 95.5645L85.4746 96.6084L84.6631 97.3037L83.5029 97.8838L83.0391 98H81.9951L80.3711 97.5361L79.4434 96.8398L78.748 95.9121L78.2842 94.8682L78.168 94.5205V89.5342L78.5156 88.8379L79.0957 88.374L79.4434 88.2578H80.4873L81.1836 88.7217L81.5312 89.3018L81.6475 89.7656L81.7637 93.5928L82.3428 93.9404L83.0391 93.8252L83.2705 93.4766L83.3867 92.085V89.6494L83.5029 86.5186L84.083 84.6631L85.0107 82.8066L83.2705 79.5596L81.6475 76.4287L80.1396 72.833L79.0957 70.166L77.8203 66.3389L76.5439 61.2354L75.501 54.625L75.0361 49.7539L74.8047 44.8828L74.6885 43.375H73.7607L73.2969 43.7227L73.0654 45.3467L72.9492 46.7383V53.2334L73.1807 56.4805L73.5293 59.3799L71.6729 60.3076L69.2373 61.3516L67.1504 62.1631L62.627 63.4395L59.7275 64.0186L55.7842 64.5986L55.4365 63.9033L54.7412 61.4678L53.5811 58.1045L52.3057 55.3203L51.8418 54.8564L51.6094 54.7412H50.9131L50.2178 55.4365V56.248L51.4932 59.6123L52.4209 62.3955L53.2334 65.4111L53.6973 68.0781L53.9287 70.9775V72.4854L53.6973 74.5732L53.1172 76.7764L52.1895 78.9795L51.2617 80.7197L49.4062 83.5029L47.7822 85.7061L46.2744 87.5625L45.3467 88.7217L44.3027 89.998L44.1865 90.3457L45.2305 90.5771L47.666 91.3896L50.334 92.665L51.957 93.709L53.1172 94.7529L53.6973 95.9121L53.8125 96.376V97.4199L53.3486 97.8838H32.8213L31.4297 97.4199L30.2695 96.376L29.5742 95.2168L29.2256 94.2891V92.5488L29.6895 90.8096L30.7334 88.0264L32.0098 85.127L33.5166 81.6475L35.373 77.8203L36.6484 75.1523L36.9961 74.1084L36.7646 73.0654L35.7207 71.3252L34.793 70.0498L33.2852 67.6143L31.8936 64.9463L30.8496 62.5117L30.0381 60.0762L29.458 57.1768L29.3418 55.5527V53.8135L26.6748 54.2773L25.5146 54.3926H21.8037L19.252 54.0449L16.7002 53.3486L14.2646 52.4209L11.8291 51.1455L9.97363 49.8701L8.69824 48.8262L7.53809 47.7822L5.56641 45.8105L4.1748 43.9551L2.89941 41.9834L1.97168 40.1279L1.27539 38.5039L0.580078 36.3008L0.231445 34.6768L0 32.7051V29.1104L0.347656 26.5586L0.927734 24.3555L1.73926 22.0352L3.13086 19.3682L4.29102 17.7441L5.68262 16.1211L7.19043 14.6133L9.0459 13.2217L11.1338 12.0615L13.3369 11.1338L15.0771 10.5537L17.2803 10.2061L18.4404 10.0898H19.832L22.1514 10.3223L24.123 10.7861L25.9785 11.4814L27.834 12.4092L29.2256 13.3369L30.6172 14.6133L31.5459 15.541L32.5889 16.9326L33.6328 18.7881L34.4453 20.9922L34.9092 22.8477L35.0244 23.6592V27.3701L34.5605 29.5742L33.749 31.7773L32.8213 33.5176L31.7773 34.9092L30.7334 36.0684L29.9219 36.8809L28.2979 38.04L26.0947 39.084L24.123 39.6641L22.6152 39.8955H20.5273L18.5557 39.5479L16.2363 38.6201L14.3809 37.46L13.4531 36.6484V36.417L12.9893 36.1846L11.9453 34.793L11.3652 33.8652L10.5537 31.4297L10.3223 30.0381V28.4141L10.5537 26.9062L11.1338 25.0508L11.9453 23.6592L12.873 22.499L13.917 21.4561L15.541 20.4121L17.0488 19.832L18.208 19.5996H20.1797L21.5713 19.9482L23.0791 20.7598L24.2393 21.8037L25.167 23.0791L25.7471 24.8193V26.791L25.2832 28.1826L24.5869 29.2256L23.543 30.1543L22.499 30.6182L22.1514 30.502L22.9629 29.458L23.3115 28.5303V26.791L22.8477 25.6309L22.0352 24.7031L20.6436 24.0068L20.0635 23.8916L18.5557 24.0068L17.3965 24.4707L16.2363 25.2832L15.4248 26.5586L14.9609 27.7188L14.8447 28.1826V29.8057L15.1924 31.1973L16.0049 32.7051L16.585 33.4014L17.8604 34.3291L19.252 35.0244L20.2959 35.2568H22.6152L24.4707 34.793L26.3262 33.8652L27.3701 33.0537L28.5303 31.7773L29.5742 29.9219L30.1533 28.2979L30.502 26.5586V24.123L29.9219 21.6875L28.9941 19.832L28.0664 18.5566L27.6025 17.9766L26.3262 16.9326L24.8193 16.0049L22.9629 15.1934L21.4551 14.8447L20.4121 14.7285H18.208L16.0049 15.0771L13.917 15.7725L11.7139 16.9326L10.2061 18.0928L9.0459 19.1357L8.00195 20.4121L6.84277 22.1514L5.79883 24.3555L4.9873 26.791L4.75488 28.1826L4.63867 29.458V32.2412L4.9873 34.5605L5.45117 36.3008L6.61035 39.084L7.53809 40.5918L8.69824 42.2158L10.0898 43.7227L11.4814 44.999L13.2217 46.2744L15.541 47.5508L19.0205 48.71L20.876 49.0576L22.0352 49.1738H24.0068L26.4424 48.8262L28.8779 48.0146L30.2695 47.3184L31.082 44.999L32.3574 42.3311L33.1689 41.0557L34.5605 39.084L35.373 38.04L36.6484 36.5322L37.9238 35.1406L39.4316 33.6328L40.3594 32.8213L41.6357 31.6611L43.1436 30.502L45.3467 28.8779L47.3184 27.4863L49.4062 26.2109L52.1895 24.5869L54.8564 23.1953L57.4082 21.9199L61.1191 20.2959L65.0625 18.7881L68.6582 17.5127L71.5576 16.7002H71.9053L72.3691 18.4404L73.1807 20.4121L74.5723 22.499L75.6162 23.7754L77.2402 25.0508L78.8643 25.9785L80.6035 26.6748L81.6475 26.9062H84.1992L85.5908 26.5586L87.3301 25.6309L88.2578 24.7031L88.9541 23.3115L87.4463 24.4707L86.4023 24.9346L85.4746 25.167H82.8066L81.415 24.8193L79.6758 23.8916L78.6318 23.0791L77.8203 22.3838L76.8926 21.2236L76.0801 20.0635L75.3848 18.9043L74.6885 16.9326L74.3408 14.9609V12.6416L74.6885 10.9014L75.2686 9.39453L76.1963 8.00195L76.7764 7.30664L78.2842 6.14648L80.1396 5.21875L80.835 4.9873L82.5752 4.87109L84.4307 5.10254L85.8223 5.68262L86.9824 6.49512L88.1416 7.53809L89.418 9.16211L90.2295 10.5537L89.9971 8.81445L89.5332 7.53809L88.4902 5.56641L87.7939 4.75488L86.6338 3.82715L86.2861 3.5957V3.36328L87.9102 2.31934L90.5771 1.04395L93.0127 0.347656L95.2168 0H99.2754L102.175 0.463867ZM81.5312 8.11816L80.835 8.35059L79.9072 8.81445L78.748 9.74219L78.0518 10.7861L77.4717 12.1777L77.3564 13.4531L77.5879 14.9609H77.8203L78.2842 13.5693L79.3281 11.9453L80.1396 11.3652L81.1836 10.9014H82.6914L83.8506 11.4814L84.6631 12.4092L85.127 13.5693H84.8945L83.6191 14.3809L82.6914 15.6572L82.459 16.8164V17.8604L82.5752 18.4404L83.0391 19.3682L83.8506 20.0635L85.0107 20.5273H86.0547L86.4023 20.4121L87.0977 19.9482L87.3301 19.4844L86.75 19.252L86.2861 18.7881L85.8223 17.8604V17.0488L86.0547 16.3525L86.4023 16.0049L87.0977 15.541L88.0264 14.9609L87.9102 13.6855L87.4463 11.9453L86.9824 10.9014L86.1699 9.8584L85.0107 8.81445L83.8506 8.23438L82.459 8.00195L81.5312 8.11816Z"/>
<path d="M108.785 11.2491L111.337 11.9454L112.612 12.0616L114.005 11.8292L115.396 11.2491L116.672 11.1339L117.368 11.4816L118.063 12.2931L118.411 13.2208V15.0773L117.832 17.5118V19.3683L118.411 20.7599L119.571 22.4991L120.731 24.587L121.427 26.0948L122.007 28.1818L122.238 29.5734V30.5021L120.963 31.4298L119.571 32.0089L118.18 32.3575L117.136 32.4728H115.86L114.12 32.2413L112.148 31.6613L110.409 30.7335L108.785 29.5734L108.09 29.4581L107.626 30.0382V30.6173L108.206 31.1974L109.713 32.2413L111.569 33.1691L113.425 33.7491L115.628 34.0968H117.136L119.224 33.7491L120.963 33.1691L121.659 32.8214H121.891L121.543 34.213L120.847 35.9523L119.919 37.3439L118.76 38.6202L117.252 39.6642L115.976 40.2433L114.584 40.5919L113.656 40.7072H111.685L110.062 40.3595L108.206 39.6642L106.93 38.8517L106.234 38.2716L105.307 37.1124L104.378 35.4884L103.914 34.213L103.683 33.0529V30.7335L104.03 28.8781L104.727 27.1388L105.771 25.2823L106.813 23.8907L106.35 23.6593L104.146 23.0792L102.291 22.2677L101.131 21.4552L99.9717 20.296L99.0439 18.4406L98.8115 17.6281V15.4249L99.2754 14.1486L100.087 12.757L101.131 11.713L102.291 11.0177L103.799 10.5538H106.118L108.785 11.2491ZM113.309 22.1515L113.192 22.963L113.656 23.4269L114.816 23.8907L116.208 24.4708L116.672 24.587L116.556 23.7745L115.86 22.8468L114.933 22.1515L113.889 21.8038L113.309 22.1515ZM118.18 22.1515L117.832 23.5431V24.3546L118.18 24.4708L118.875 23.1954V22.1515L118.296 22.0353L118.18 22.1515Z"/>
</g>
</svg>
