<svg width="1686" height="324" viewBox="0 0 1686 324" fill="none" xmlns="http://www.w3.org/2000/svg">
<path d="M411.781 266V107.047H433.31V266H411.781ZM514.39 266V107.047H535.92V266H514.39ZM426.439 193.624V173.926H519.658V193.624H426.439ZM614.951 268.29C604.262 268.29 594.643 265.771 586.092 260.732C577.541 255.693 570.746 248.898 565.707 240.348C560.669 231.644 558.149 221.948 558.149 211.26C558.149 200.724 560.669 191.257 565.707 182.859C570.746 174.308 577.541 167.513 586.092 162.474C594.643 157.435 604.262 154.916 614.951 154.916C625.487 154.916 635.03 157.435 643.581 162.474C652.284 167.361 659.155 174.079 664.194 182.63C669.233 191.181 671.753 200.724 671.753 211.26C671.753 221.948 669.233 231.644 664.194 240.348C659.155 248.898 652.284 255.693 643.581 260.732C635.03 265.771 625.487 268.29 614.951 268.29ZM614.951 248.364C621.822 248.364 627.93 246.761 633.274 243.554C638.618 240.348 642.817 235.996 645.871 230.499C648.925 224.849 650.452 218.436 650.452 211.26C650.452 204.236 648.849 197.975 645.642 192.478C642.588 186.982 638.389 182.706 633.045 179.652C627.853 176.446 621.822 174.842 614.951 174.842C608.08 174.842 601.972 176.446 596.628 179.652C591.283 182.706 587.084 186.982 584.031 192.478C580.977 197.975 579.45 204.236 579.45 211.26C579.45 218.436 580.977 224.849 584.031 230.499C587.084 235.996 591.283 240.348 596.628 243.554C601.972 246.761 608.08 248.364 614.951 248.364ZM734.144 268.29C725.288 268.29 717.272 266.305 710.095 262.335C703.071 258.213 697.574 252.563 693.604 245.386C689.634 238.21 687.649 229.888 687.649 220.421V157.206H708.263V219.505C708.263 225.46 709.255 230.652 711.24 235.08C713.378 239.355 716.432 242.638 720.402 244.928C724.372 247.219 729.029 248.364 734.373 248.364C742.466 248.364 748.803 245.845 753.383 240.806C757.964 235.614 760.255 228.514 760.255 219.505V157.206H780.868V220.421C780.868 229.888 778.883 238.21 774.913 245.386C770.943 252.563 765.446 258.213 758.422 262.335C751.551 266.305 743.458 268.29 734.144 268.29ZM838.5 268.29C832.392 268.29 826.59 267.527 821.093 266C815.749 264.32 810.786 262.03 806.206 259.129C801.625 256.075 797.655 252.487 794.296 248.364L807.58 235.08C811.55 239.966 816.131 243.631 821.322 246.074C826.514 248.364 832.316 249.509 838.729 249.509C845.142 249.509 850.105 248.44 853.617 246.303C857.129 244.012 858.885 240.882 858.885 236.912C858.885 232.942 857.434 229.888 854.533 227.75C851.784 225.46 848.196 223.628 843.768 222.254C839.34 220.727 834.606 219.276 829.568 217.902C824.681 216.375 820.024 214.466 815.596 212.176C811.168 209.885 807.504 206.755 804.602 202.785C801.854 198.815 800.48 193.547 800.48 186.982C800.48 180.416 802.083 174.766 805.289 170.033C808.496 165.146 812.924 161.406 818.574 158.81C824.376 156.214 831.324 154.916 839.416 154.916C847.967 154.916 855.525 156.443 862.091 159.497C868.81 162.398 874.307 166.826 878.582 172.781L865.298 186.065C862.244 182.095 858.427 179.042 853.846 176.904C849.418 174.766 844.379 173.697 838.729 173.697C832.774 173.697 828.193 174.766 824.987 176.904C821.933 178.889 820.406 181.714 820.406 185.378C820.406 189.043 821.78 191.868 824.529 193.853C827.277 195.838 830.865 197.517 835.294 198.892C839.874 200.266 844.608 201.716 849.494 203.243C854.38 204.618 859.037 206.526 863.465 208.969C867.893 211.412 871.482 214.695 874.23 218.818C877.131 222.941 878.582 228.361 878.582 235.08C878.582 245.31 874.917 253.403 867.588 259.358C860.412 265.313 850.716 268.29 838.5 268.29ZM947.467 268.29C936.626 268.29 926.854 265.847 918.15 260.961C909.447 255.922 902.576 249.127 897.537 240.577C892.498 232.026 889.978 222.33 889.978 211.489C889.978 200.8 892.422 191.181 897.308 182.63C902.347 174.079 909.065 167.361 917.463 162.474C926.014 157.435 935.557 154.916 946.093 154.916C956.171 154.916 965.027 157.206 972.662 161.787C980.449 166.368 986.48 172.705 990.756 180.797C995.184 188.89 997.398 198.052 997.398 208.282C997.398 209.809 997.321 211.489 997.169 213.321C997.016 215.001 996.711 216.986 996.253 219.276H904.408V202.098H985.259L977.7 208.74C977.7 201.411 976.402 195.227 973.807 190.188C971.211 184.997 967.546 181.027 962.813 178.278C958.079 175.377 952.353 173.926 945.635 173.926C938.611 173.926 932.427 175.453 927.083 178.507C921.739 181.561 917.616 185.836 914.715 191.333C911.813 196.83 910.363 203.32 910.363 210.802C910.363 218.436 911.89 225.155 914.944 230.957C917.998 236.607 922.349 241.035 927.999 244.241C933.649 247.295 940.138 248.822 947.467 248.822C953.575 248.822 959.148 247.753 964.187 245.616C969.379 243.478 973.807 240.271 977.471 235.996L990.756 249.509C985.564 255.617 979.151 260.274 971.516 263.481C964.034 266.687 956.018 268.29 947.467 268.29ZM1010.48 184.691C1010.48 161.329 1018.88 141.937 1035.68 126.515C1052.63 110.941 1072.55 103.153 1095.46 103.153C1109.2 103.153 1121.95 107.887 1133.71 117.354C1134.93 118.423 1135.54 119.797 1135.54 121.476C1135.54 123.919 1134.55 126.21 1132.56 128.348C1130.58 130.333 1128.51 131.325 1126.38 131.325C1124.85 131.325 1123.55 130.791 1122.48 129.722C1115.15 123.309 1105.99 120.102 1095 120.102C1075 120.102 1058.73 126.592 1046.21 139.57C1033.85 152.397 1027.66 167.361 1027.66 184.462C1027.66 202.022 1033.77 217.52 1045.98 230.957C1058.2 244.394 1074.61 251.112 1095.23 251.112C1108.66 251.112 1119.58 246.303 1127.98 236.683C1129.66 235.003 1131.11 234.164 1132.33 234.164C1134.62 234.164 1136.84 235.309 1138.97 237.599C1141.11 239.89 1142.18 242.104 1142.18 244.241C1142.18 245.616 1141.65 246.837 1140.58 247.906C1128.82 261.343 1114.09 268.061 1096.37 268.061C1078.81 268.061 1063.39 264.091 1050.11 256.151C1036.82 248.059 1026.9 237.828 1020.33 225.46C1013.77 212.939 1010.48 199.35 1010.48 184.691ZM1155.84 260.045V100.176C1155.84 98.1907 1156.61 96.6638 1158.13 95.595C1159.81 94.5261 1161.8 93.9917 1164.09 93.9917C1169.89 93.9917 1172.79 96.053 1172.79 100.176V176.217C1180.27 168.277 1189.44 162.016 1200.28 157.435C1211.12 152.855 1222.19 150.564 1233.49 150.564C1247.99 150.564 1260.06 154.84 1269.68 163.391C1279.29 171.789 1284.1 183.088 1284.1 197.288C1284.1 198.663 1284.03 205.686 1283.88 218.36C1283.88 230.881 1283.88 244.623 1283.88 259.587C1283.88 261.572 1283.04 263.175 1281.36 264.397C1279.68 265.466 1277.69 266 1275.4 266C1269.75 266 1266.93 263.862 1266.93 259.587V199.35C1266.93 191.868 1264.79 185.607 1260.51 180.568C1256.39 175.377 1251.81 171.865 1246.77 170.033C1241.73 168.2 1236.62 167.284 1231.43 167.284C1220.13 167.284 1208.6 170.796 1196.84 177.82C1185.24 184.844 1177.22 193.853 1172.79 204.847V260.045C1172.79 264.168 1169.89 266.229 1164.09 266.229C1161.8 266.229 1159.81 265.695 1158.13 264.626C1156.61 263.557 1155.84 262.03 1155.84 260.045ZM1305.37 259.587V157.665C1305.37 153.542 1308.27 151.48 1314.07 151.48C1316.37 151.48 1318.27 152.015 1319.8 153.084C1321.48 154.153 1322.32 155.68 1322.32 157.665V259.587C1322.32 261.572 1321.48 263.175 1319.8 264.397C1318.12 265.466 1316.14 266 1313.85 266C1308.2 266 1305.37 263.862 1305.37 259.587ZM1305.37 122.163V118.041C1305.37 113.918 1308.27 111.857 1314.07 111.857C1316.37 111.857 1318.27 112.391 1319.8 113.46C1321.48 114.529 1322.32 116.056 1322.32 118.041V122.163C1322.32 124.148 1321.48 125.752 1319.8 126.973C1318.12 128.042 1316.14 128.577 1313.85 128.577C1308.2 128.577 1305.37 126.439 1305.37 122.163ZM1345.07 259.587V158.123C1345.07 154 1347.97 151.939 1353.78 151.939C1356.07 151.939 1357.97 152.473 1359.5 153.542C1361.18 154.611 1362.02 156.138 1362.02 158.123V170.262C1366.91 164.459 1372.86 159.497 1379.89 155.374C1386.91 151.251 1393.86 149.19 1400.73 149.19C1419.51 149.19 1432.87 155.985 1440.81 169.575C1445.54 163.009 1451.57 157.97 1458.9 154.458C1466.39 150.946 1473.94 149.19 1481.58 149.19C1495.78 149.19 1507 153.236 1515.25 161.329C1523.49 169.422 1527.62 180.645 1527.62 194.998C1527.62 196.372 1527.54 203.93 1527.39 217.673C1527.39 231.262 1527.39 245.539 1527.39 260.503C1527.39 262.488 1526.55 264.091 1524.87 265.313C1523.19 266.382 1521.28 266.916 1519.14 266.916C1513.49 266.916 1510.67 264.778 1510.67 260.503V197.059C1510.67 176.446 1501.28 166.139 1482.5 166.139C1479.75 166.139 1476.92 166.444 1474.02 167.055C1471.27 167.513 1468.22 168.506 1464.86 170.033C1461.65 171.56 1458.75 173.468 1456.16 175.759C1453.56 177.896 1451.42 180.874 1449.74 184.691C1448.06 188.508 1447.22 192.784 1447.22 197.517C1447.22 203.472 1447.15 211.031 1446.99 220.192C1446.99 229.354 1446.99 242.791 1446.99 260.503C1446.99 262.488 1446.08 264.091 1444.25 265.313C1442.57 266.382 1440.58 266.916 1438.29 266.916C1432.95 266.916 1430.27 264.778 1430.27 260.503V197.059C1430.27 185.913 1427.6 177.973 1422.26 173.239C1416.91 168.506 1410.04 166.139 1401.64 166.139C1393.55 166.139 1385.69 169.193 1378.05 175.301C1370.57 181.408 1365.23 188.508 1362.02 196.601V259.587C1362.02 261.572 1361.18 263.175 1359.5 264.397C1357.82 265.466 1355.84 266 1353.55 266C1347.9 266 1345.07 263.862 1345.07 259.587ZM1549.18 317.076V157.894C1549.18 155.909 1550.02 154.382 1551.7 153.313C1553.38 152.091 1555.37 151.48 1557.66 151.48C1563.31 151.48 1566.13 153.618 1566.13 157.894V182.859C1580.64 160.718 1602.09 149.648 1630.49 149.648C1643.47 149.648 1654.46 154 1663.47 162.703C1672.63 171.254 1677.21 181.332 1677.21 192.937C1677.21 206.526 1673.47 219.047 1665.99 230.499C1658.51 241.798 1648.74 250.578 1636.67 256.838C1624.76 263.099 1612.24 266.229 1599.11 266.229C1586.44 266.229 1575.44 262.03 1566.13 253.632V317.076C1566.13 321.198 1563.23 323.26 1557.43 323.26C1555.14 323.26 1553.15 322.725 1551.47 321.656C1549.94 320.588 1549.18 319.061 1549.18 317.076ZM1565.9 220.879C1565.9 230.194 1569.57 237.217 1576.9 241.951C1584.38 246.684 1591.78 249.051 1599.11 249.051C1607.97 249.051 1616.98 246.913 1626.14 242.638C1635.3 238.363 1643.09 232.026 1649.5 223.628C1656.07 215.077 1659.35 205.763 1659.35 195.685C1659.35 185.302 1656.07 177.82 1649.5 173.239C1643.09 168.658 1635.3 166.368 1626.14 166.368C1617.59 166.368 1608.5 169.269 1598.88 175.072C1589.42 180.721 1581.55 187.898 1575.29 196.601C1569.03 205.152 1565.9 213.245 1565.9 220.879Z" fill="#013334"/>
<path d="M288.681 125.766L290.385 126.106L298.906 128.833L308.108 130.878L309.471 132.241L315.265 147.238L319.014 156.44L323.786 168.369L325.831 173.822L330.943 185.751L334.692 195.635L339.805 207.905L343.554 218.13L346.962 228.355L348.666 235.512L350.03 244.033L351.052 254.94V267.209L350.03 273.003L348.326 277.434L345.258 281.865L341.85 284.592L337.76 286.637L333.329 287.659L328.898 288H318.333L313.561 287.318L309.471 285.955L306.404 283.569L304.018 281.183L302.314 277.775L301.291 273.344V267.55L302.655 264.483L304.359 263.119L305.04 262.779H308.449L310.153 264.142L311.175 270.277L313.22 274.367L315.265 276.071L319.014 277.775H324.127L327.194 276.753L329.921 274.708L331.625 271.981L332.648 268.232L332.988 266.187V255.962L331.966 254.258L329.58 253.917L328.217 255.28L327.876 264.142L327.194 269.254L324.808 271.981L323.104 272.663H320.378L318.333 271.64L316.969 269.936L315.947 267.209L315.606 264.483V247.101L316.969 241.647L314.584 238.58L310.494 233.127L306.404 228.014L302.995 223.243L298.224 216.767L294.816 211.995L290.726 206.201L290.044 202.793L289.703 190.864L289.362 167.347L289.021 154.736L288.681 125.766Z" fill="#013334"/>
<path d="M199.043 190.182H199.724L201.429 195.635L202.792 202.793V213.699L201.769 220.175L199.724 227.332L196.316 235.171L189.159 249.486L185.069 256.984L182.683 261.415V262.097L191.545 264.824L202.451 268.913L208.927 272.322L212.335 275.048L215.062 278.116L216.425 280.842L216.766 281.865V286.977L216.425 287.659L195.975 288L193.93 287.659L194.271 285.955V283.569L192.908 279.82L190.522 276.753L185.41 274.026L177.23 271.64L174.503 271.299L172.799 271.981L172.458 274.367L173.14 275.73L175.866 276.753L179.956 277.775L184.046 279.138L187.455 281.183L188.818 282.887V285.614L187.455 287.318L186.773 287.659L173.822 288H167.005L165.642 287.318V284.251L163.938 277.775L162.233 274.367L159.507 270.958L154.735 267.55L149.964 264.824L143.829 262.097L143.147 261.074L147.919 254.94L152.349 248.805L156.78 241.647L159.848 236.194L162.574 230.4L164.96 222.22L165.982 217.108L166.323 210.632L165.982 203.815L165.301 199.725V197.68L176.207 195.976L188.818 193.25L199.043 190.182Z" fill="#013334"/>
<path d="M300.27 1.36328L305.723 3.06738L313.562 6.47559L319.355 9.88379L324.81 13.9736L329.24 17.7227L331.285 19.4268L334.353 23.1768L336.397 25.5625L335.716 26.9258L332.308 28.2891H327.877L320.719 26.2441L316.288 24.8809L312.88 24.1992L309.472 23.8584H306.404L301.974 24.54L297.884 25.9033L294.135 27.9482L290.727 30.6748L288.341 33.0605L285.614 37.4912L283.91 42.2627L283.229 44.9893V52.4873L284.933 58.9629L287.659 63.7354L290.727 67.1436L293.794 69.8701L299.247 72.9375L301.974 74.3008L300.951 77.3682L299.588 81.1172L298.225 86.2295L297.543 90.3193V96.7949L298.565 102.589L300.27 107.702L303.337 113.155L306.063 116.563L309.131 119.631L312.539 122.017L313.221 123.039L308.449 122.698L299.929 120.994L290.386 117.586L280.842 112.814V141.103L281.523 179.616L282.206 206.542L282.547 227.674V249.146L281.864 258.688L279.819 272.663L278.115 279.82L276.752 282.547L274.366 285.273L270.617 287.318L267.209 288L270.276 281.524L271.299 277.435V274.367L270.617 273.686L268.231 274.026L267.209 277.094L265.846 281.865L263.46 285.273L261.756 286.637L259.37 287.659L254.599 288L254.258 287.318L256.303 283.91L258.348 277.775L258.688 274.367L258.007 273.345L256.303 273.004L254.939 274.367L253.235 280.843L251.19 283.91L248.805 285.955L245.396 287.659L244.033 288H240.966L236.193 286.637L233.467 284.592L231.422 281.865L230.059 278.798L229.718 277.775V263.119L230.74 261.074L232.444 259.711L233.467 259.37H236.534L238.579 260.733L239.602 262.438L239.942 263.801L240.283 275.049L241.988 276.071L244.033 275.73L244.715 274.708L245.056 270.618V263.46L245.396 254.258L247.101 248.805L249.827 243.352L244.715 233.809L239.942 224.605L235.512 214.04L232.444 206.201L228.695 194.954L224.946 179.957L221.879 160.53L220.516 146.216L219.834 131.9L219.493 127.47H216.767L215.403 128.492L214.722 133.264L214.381 137.354V156.44L215.062 165.983L216.085 174.504L210.632 177.23L203.475 180.298L197.339 182.684L184.047 186.434L175.526 188.138L163.938 189.842L162.916 187.797L160.871 180.639L157.462 170.755L153.713 162.575L152.35 161.212L151.668 160.871H149.623L147.578 162.916V165.302L151.327 175.186L154.054 183.365L156.439 192.228L157.803 200.066L158.484 208.587V213.018L157.803 219.152L156.099 225.628L153.372 232.104L150.646 237.217L145.192 245.396L140.421 251.872L135.99 257.325L133.264 260.733L130.196 264.482L129.855 265.505L132.923 266.187L140.08 268.573L147.919 272.322L152.69 275.39L156.099 278.457L157.803 281.865L158.144 283.229V286.296L156.78 287.659H96.4541L92.3643 286.296L88.9561 283.229L86.9111 279.82L85.8887 277.094V271.981L87.252 266.868L90.3193 258.688L94.0684 250.168L98.499 239.943L103.952 228.696L107.701 220.856L108.724 217.789L108.042 214.722L104.975 209.609L102.248 205.86L97.8174 198.703L93.7275 190.864L90.6602 183.706L88.2744 176.549L86.5703 168.028L86.2295 163.257V158.145L78.3906 159.508L74.9814 159.849H64.0752L56.5771 158.826L49.0791 156.781L41.9219 154.055L34.7637 150.306L29.3105 146.557L25.5615 143.488L22.1533 140.421L16.3594 134.627L12.2695 129.174L8.52051 123.38L5.79395 117.927L3.74902 113.155L1.7041 106.68L0.681641 101.907L0 96.1133V85.5479L1.02246 78.0498L2.72656 71.5742L5.1123 64.7578L9.20215 56.918L12.6104 52.1465L16.7002 47.375L21.1309 42.9443L26.584 38.8545L32.7188 35.4463L39.1953 32.7197L44.3076 31.0156L50.7832 29.9932L54.1914 29.6523H58.2812L65.0977 30.334L70.8916 31.6973L76.3447 33.7422L81.7988 36.4688L85.8887 39.1953L89.9785 42.9443L92.7051 45.6709L95.7725 49.7607L98.8398 55.2139L101.226 61.6895L102.589 67.1436L102.93 69.5293V80.4355L101.566 86.9111L99.1807 93.3867L96.4541 98.499L93.3867 102.589L90.3193 105.998L87.9336 108.384L83.1621 111.792L76.6865 114.859L70.8916 116.563L66.4609 117.245H60.3262L54.5322 116.223L47.7158 113.496L42.2627 110.088L39.5361 107.702V107.021L38.1729 106.339L35.1045 102.248L33.4004 99.5215L31.0146 92.3643L30.333 88.2744V83.5029L31.0146 79.0723L32.7188 73.6191L35.1045 69.5293L37.832 66.1211L40.8994 63.0537L45.6709 59.9854L50.1016 58.2812L53.5098 57.5996H59.3037L63.3936 58.6221L67.8242 61.0078L71.2324 64.0762L73.959 67.8252L75.6631 72.9375V78.7314L74.2998 82.8213L72.2549 85.8887L69.1875 88.6152L66.1201 89.9785L65.0977 89.6377L67.4834 86.5703L68.5059 83.8438V78.7314L67.1426 75.3232L64.7568 72.5967L60.667 70.5518L58.9629 70.2109L54.5322 70.5518L51.124 71.915L47.7158 74.3008L45.3301 78.0498L43.9668 81.458L43.626 82.8213V87.5928L44.6484 91.6826L47.0342 96.1133L48.7383 98.1582L52.4873 100.885L56.5771 102.93L59.6445 103.612H66.4609L71.9141 102.248L77.3682 99.5215L80.4355 97.1357L83.8438 93.3867L86.9111 87.9336L88.6152 83.1621L89.6377 78.0498V70.8926L87.9336 63.7354L85.207 58.2812L82.4805 54.5322L81.1172 52.8281L77.3682 49.7607L72.9365 47.0342L67.4834 44.6484L63.0527 43.626L59.9854 43.2852H53.5098L47.0342 44.3076L40.8994 46.3525L34.4229 49.7607L29.9922 53.1689L26.584 56.2363L23.5166 59.9854L20.1084 65.0986L17.041 71.5742L14.6553 78.7314L13.9736 82.8213L13.6328 86.5703V94.75L14.6553 101.566L16.0186 106.68L19.4268 114.859L22.1533 119.29L25.5615 124.062L29.6514 128.492L33.7412 132.241L38.8545 135.99L45.6709 139.739L55.8955 143.147L61.3486 144.17L64.7568 144.512H70.5508L77.709 143.488L84.8662 141.103L88.9561 139.058L91.3418 132.241L95.0908 124.402L97.4766 120.653L101.566 114.859L103.952 111.792L107.701 107.361L111.45 103.271L115.881 98.8398L118.608 96.4541L122.357 93.0459L126.788 89.6377L133.264 84.8662L139.058 80.7764L145.192 77.0273L153.372 72.2559L161.212 68.166L168.71 64.417L179.616 59.6445L191.204 55.2139L201.771 51.4648L210.291 49.0791H211.313L212.677 54.1914L215.062 59.9854L219.152 66.1211L222.22 69.8701L226.991 73.6191L231.763 76.3457L236.875 78.3906L239.942 79.0723H247.441L251.531 78.0498L256.644 75.3232L259.37 72.5967L261.415 68.5068L256.984 71.915L253.917 73.2783L251.19 73.96H243.352L239.261 72.9375L234.148 70.2109L231.081 67.8252L228.695 65.7803L225.969 62.3721L223.583 58.9629L221.538 55.5547L219.493 49.7607L218.471 43.9668V37.1504L219.493 32.0381L221.197 27.6074L223.924 23.5176L225.628 21.4727L230.059 18.0635L235.512 15.3369L237.557 14.6553L242.67 14.3145L248.123 14.9961L252.213 16.7002L255.621 19.0859L259.029 22.1543L262.778 26.9258L265.164 31.0156L264.482 25.9033L263.119 22.1543L260.052 16.3594L258.007 13.9736L254.599 11.2471L253.576 10.5654V9.88379L258.348 6.81641L266.187 3.06738L273.344 1.02246L279.819 0H291.749L300.27 1.36328ZM239.602 23.8584L237.557 24.54L234.83 25.9033L231.422 28.6299L229.377 31.6973L227.673 35.7871L227.332 39.5361L228.014 43.9668H228.695L230.059 39.877L233.126 35.1055L235.512 33.4014L238.579 32.0381H243.011L246.419 33.7422L248.805 36.4688L250.168 39.877H249.486L245.737 42.2627L243.011 46.0117L242.329 49.4199V52.4873L242.67 54.1914L244.033 56.918L246.419 58.9629L249.827 60.3262H252.895L253.917 59.9854L255.962 58.6221L256.644 57.2588L254.939 56.5771L253.576 55.2139L252.213 52.4873V50.1016L252.895 48.0566L253.917 47.0342L255.962 45.6709L258.688 43.9668L258.348 40.2178L256.984 35.1055L255.621 32.0381L253.235 28.9707L249.827 25.9033L246.419 24.1992L242.329 23.5176L239.602 23.8584Z" fill="#013334"/>
<path d="M319.695 33.0603L327.194 35.1052L330.943 35.446L335.033 34.7644L339.123 33.0603L342.872 32.7195L344.917 33.7419L346.962 36.1277L347.984 38.8542V44.3074L346.28 51.4646V56.9177L347.984 61.0076L351.393 66.1208L354.801 72.2556L356.846 76.6863L358.55 82.821L359.231 86.9109V89.6375L355.482 92.364L351.393 94.0681L347.303 95.0906L344.235 95.4314H340.486L335.374 94.7498L329.58 93.0457L324.468 90.3191L319.695 86.9109L317.65 86.5701L316.287 88.2742V89.9783L317.991 91.6824L322.422 94.7498L327.876 97.4763L333.329 99.1804L339.805 100.203H344.235L350.37 99.1804L355.482 97.4763L357.527 96.4539H358.209L357.187 100.544L355.142 105.657L352.415 109.747L349.007 113.496L344.576 116.563L340.827 118.267L336.737 119.29L334.011 119.631H328.217L323.444 118.608L317.991 116.563L314.242 114.177L312.197 112.473L309.471 109.065L306.744 104.294L305.381 100.544L304.699 97.1355V90.3191L305.722 84.866L307.767 79.7537L310.834 74.3005L313.901 70.2107L312.538 69.5291L306.062 67.825L300.609 65.4392L297.201 63.0535L293.793 59.6443L291.066 54.1912L290.385 51.8054V45.3298L291.748 41.5808L294.134 37.491L297.201 34.4236L300.609 32.3787L305.04 31.0154H311.856L319.695 33.0603ZM332.988 65.0984L332.647 67.4841L334.011 68.8474L337.419 70.2107L341.509 71.9148L342.872 72.2556L342.531 69.8699L340.486 67.1433L337.76 65.0984L334.692 64.0759L332.988 65.0984ZM347.303 65.0984L346.28 69.1882V71.574L347.303 71.9148L349.348 68.1658V65.0984L347.644 64.7576L347.303 65.0984Z" fill="#013334"/>
</svg>
